P2
# Created by IrfanView
16 16
255
255 255 255 255 255 255 255 254 254 255 255 255 255 255 255 255 255 255 255 255 255 255 253 176 171 253 255 255 255 255 255 255 255 255 255 255 254 253 165 172 173 152 252 254 255 255 255 255 255 255 255 255 253 162 174 207 208 175 151 252 255 255 255 255 255 255 254 253 159 176 207 155 154 208 177 149 251 254 255 255 255 255 253 156 178 207 208 34 34 208 207 179 146 252 255 255 254 252 153 180 207 208 208 34 34 208 208 208 181 145 252 254 254 160 182 207 155 31 30 7 7 30 30 151 207 183 156 254 254 167 171 208 163 53 52 11 11 52 52 159 208 169 171 254 255 251 158 169 208 208 208 34 33 208 208 208 167 168 251 255 255 255 251 162 168 208 208 34 33 208 208 165 171 251 255 255 255 255 255 252 164 165 207 178 178 207 164 175 252 254 255 255 255 255 255 255 253 165 164 207 207 163 177 252 255 255 255 255 255 255 255 255 254 253 169 160 161 180 252 254 255 255 255 255 255 255 255 255 255 254 253 188 194 253 255 255 255 255 255 255 255 255 255 255 255 255 255 253 253 255 255 255 255 255 255 255 