P2
# Created by IrfanView
16 16
255
254 232 222 222 222 222 222 222 222 222 222 222 222 221 228 253 234 132 86 85 85 85 85 85 85 85 85 85 85 85 119 229 221 98 63 63 63 63 86 94 93 93 66 62 63 63 80 222 222 98 63 63 63 62 192 132 132 175 103 63 63 63 80 222 222 98 63 63 63 62 165 63 63 127 198 84 63 63 80 222 222 98 63 63 63 62 179 93 93 150 161 135 63 63 80 222 222 98 63 63 63 62 238 254 255 254 103 132 63 63 80 222 222 98 63 63 63 62 238 254 255 253 196 132 63 63 80 222 222 98 63 63 63 62 238 254 255 254 184 133 63 63 80 222 222 98 63 63 63 62 238 254 255 254 175 143 63 63 80 222 222 98 63 63 63 62 238 254 255 254 177 150 63 63 80 222 222 98 63 63 63 62 238 254 255 254 182 134 78 63 80 222 222 98 63 71 128 127 242 253 253 252 185 212 80 63 80 222 221 98 63 74 145 145 145 145 145 145 144 144 83 63 80 222 225 110 63 63 63 63 63 63 63 63 63 63 63 62 95 221 253 216 199 198 198 198 198 198 198 198 198 198 198 198 210 253 