P2
# Created by IrfanView
16 16
255
253 219 218 218 218 218 218 218 218 218 218 218 218 218 218 253 218 106 83 91 91 87 84 84 84 84 88 92 90 84 106 219 218 75 63 233 250 154 63 63 63 63 167 250 224 62 78 217 218 75 62 237 253 155 63 63 63 63 169 254 227 62 78 217 218 75 63 237 253 156 63 63 63 63 169 254 228 63 78 217 218 75 63 237 253 155 63 63 63 63 169 254 228 63 78 217 218 75 63 237 253 217 185 185 185 185 223 254 228 63 78 217 218 75 63 237 254 254 254 254 254 254 254 254 228 63 78 217 218 75 63 237 253 235 220 220 220 220 238 254 228 63 78 217 218 75 63 237 253 155 62 62 62 62 169 254 228 63 78 217 218 75 63 237 253 156 63 63 63 63 169 254 228 63 78 217 218 75 63 237 253 156 63 63 63 63 169 254 228 63 78 217 218 75 63 237 253 156 63 63 63 63 169 254 228 63 78 217 218 75 62 234 252 154 63 63 63 63 169 253 227 63 78 217 215 95 73 89 90 81 72 72 72 72 82 90 88 73 99 216 252 215 217 217 217 217 217 217 217 217 217 217 217 217 215 252 