P2
# Created by IrfanView
16 16
255
254 255 254 253 244 185 134 109 108 127 172 237 252 253 254 254 255 255 253 188 82 61 72 101 104 78 62 72 161 248 253 254 254 252 157 64 93 188 246 254 252 249 205 111 63 121 246 253 253 182 62 62 134 248 253 255 255 255 253 247 154 63 144 251 238 77 97 143 62 134 151 231 253 254 254 254 251 129 64 213 172 62 196 248 149 63 111 182 154 66 193 253 253 229 68 134 123 78 249 188 136 77 63 106 216 89 142 136 167 247 114 80 98 107 181 173 246 115 65 62 96 123 114 220 206 149 146 61 98 106 139 253 173 224 136 150 62 69 159 121 250 141 145 61 122 79 155 209 254 231 138 248 120 63 116 243 235 133 114 80 173 63 195 153 143 142 243 253 228 156 64 94 131 216 67 133 239 77 97 244 253 255 255 255 254 250 161 64 113 125 65 212 251 180 63 121 244 253 254 254 254 253 250 163 62 62 142 249 253 250 155 63 94 190 247 254 253 249 207 113 65 121 245 253 254 254 251 184 80 62 74 100 102 79 61 71 158 247 254 255 254 255 254 254 244 185 132 108 106 125 171 234 251 254 254 254 