P2
# Created by IrfanView
16 16
255
253 255 252 252 229 158 108 85 86 114 167 237 252 253 253 254 255 254 249 163 71 62 86 114 113 82 63 77 179 251 253 255 253 250 136 62 107 209 251 253 254 251 198 95 64 162 251 253 252 171 62 62 133 185 179 254 255 255 252 241 116 65 194 251 238 74 105 136 63 41 159 247 248 248 252 251 238 86 90 248 174 63 159 52 42 63 40 4 2 7 134 252 253 175 62 199 125 79 219 73 6 42 62 39 21 2 31 254 254 236 65 149 101 107 252 249 145 16 60 64 137 10 28 254 254 251 80 128 103 107 254 254 252 209 190 126 63 36 30 253 253 250 80 129 127 80 249 254 255 254 253 247 125 62 59 251 253 235 64 153 175 62 201 253 255 255 254 254 240 50 63 157 249 173 63 200 238 74 103 246 254 255 255 255 245 12 46 62 152 85 91 248 251 172 63 133 247 254 254 254 245 40 57 110 62 64 196 252 252 249 138 63 107 208 250 253 251 248 195 94 63 163 252 254 254 253 249 168 70 63 86 115 112 80 62 77 182 252 253 255 253 254 253 252 230 161 112 88 89 116 171 239 252 254 254 254 