P2
# Created by IrfanView
16 16
255
225 237 237 237 237 237 237 237 237 237 237 238 237 237 237 222 240 255 255 255 252 211 171 153 153 172 212 252 254 255 255 237 240 255 254 222 135 156 203 227 226 202 154 137 224 254 255 237 240 254 212 118 151 135 134 134 136 154 228 219 130 215 254 237 240 237 129 230 162 84 35 36 33 32 51 232 231 129 240 237 240 170 194 254 247 82 125 246 245 124 32 156 254 189 175 236 237 129 247 255 248 35 83 150 247 181 32 142 255 244 131 234 229 134 254 255 248 34 64 103 138 63 32 193 255 254 130 230 228 134 254 255 248 34 32 33 70 95 136 254 255 254 130 229 237 128 248 255 248 34 88 237 241 195 137 238 255 245 130 234 240 168 195 254 248 34 93 255 255 255 202 133 234 190 174 237 240 236 129 235 248 34 93 255 255 255 254 208 131 129 238 237 240 254 208 132 222 147 175 255 255 254 254 222 129 212 254 237 240 255 253 218 133 160 207 231 230 206 158 135 221 254 255 237 240 255 255 254 251 207 168 149 149 169 209 250 254 255 255 237 227 240 240 240 240 240 240 240 240 240 240 240 240 240 240 224 