P2
# Created by IrfanView
16 16
255
254 255 253 253 251 209 159 131 131 154 204 251 253 253 254 255 255 255 252 213 103 61 63 78 78 63 62 97 202 252 255 255 253 252 189 69 76 163 156 208 251 235 172 83 66 173 252 254 253 209 70 63 137 249 27 101 253 254 253 235 108 65 196 253 250 101 80 129 63 147 189 81 166 251 254 254 237 88 88 245 206 62 169 248 135 64 64 4 3 67 232 255 253 185 62 188 153 65 236 252 247 121 61 37 7 86 202 255 254 247 73 134 127 85 253 254 176 62 109 63 37 73 202 255 255 254 103 108 126 87 253 254 246 251 239 55 62 112 232 253 254 253 107 105 146 67 243 254 255 255 139 11 48 63 147 250 253 250 78 128 193 63 185 253 255 253 41 141 90 45 62 147 250 200 61 175 247 87 91 242 255 220 10 233 183 31 133 63 146 105 74 238 252 190 63 120 244 155 73 253 250 36 213 133 62 63 174 252 253 251 159 64 97 177 206 253 252 178 190 106 62 146 249 253 254 254 251 183 78 63 79 112 113 83 63 73 171 251 254 254 254 255 253 252 241 176 123 99 98 120 170 237 252 254 255 254 