P2
# Created by IrfanView
16 16
255
254 254 253 253 242 180 130 108 110 134 183 245 252 253 254 253 255 255 252 184 80 61 71 94 94 69 62 85 193 251 253 254 254 252 161 63 92 186 244 253 253 243 181 85 65 169 250 253 253 186 63 62 143 250 254 255 254 181 218 233 106 66 198 251 242 82 94 128 63 147 249 253 253 131 20 159 234 84 91 246 181 61 188 247 122 63 54 21 19 13 1 3 86 152 63 196 130 74 247 254 244 47 61 35 8 6 1 4 63 206 67 145 103 102 253 255 250 7 47 63 151 131 12 135 247 252 89 116 103 105 254 255 251 2 26 113 64 78 202 252 253 251 92 114 121 81 250 254 251 0 26 241 111 63 162 251 252 244 70 138 168 62 206 253 251 0 25 253 241 108 62 166 251 192 62 184 233 70 110 248 251 0 25 254 253 240 105 63 165 97 77 241 252 159 64 148 246 10 33 253 253 252 239 103 62 63 175 252 253 247 122 64 121 217 244 252 252 251 216 109 63 138 250 254 254 253 246 146 65 65 103 134 133 100 64 67 158 248 254 255 254 255 253 252 218 142 92 70 72 96 147 223 252 254 255 255 