P2
# Created by IrfanView
16 16
255
253 255 254 253 239 171 120 97 96 117 168 236 251 252 254 253 254 255 252 177 75 62 79 109 110 81 62 72 169 250 254 254 253 252 153 62 99 199 250 253 254 252 205 106 61 138 249 253 252 180 63 62 128 246 254 254 255 255 252 248 132 62 168 252 242 79 98 148 62 129 204 173 173 173 172 171 178 107 71 235 179 63 195 250 149 63 56 5 1 0 0 0 34 206 63 166 130 72 247 253 151 36 62 45 5 3 0 0 33 250 84 117 105 102 252 115 15 3 36 61 45 5 1 0 34 253 113 95 107 101 252 92 2 1 8 51 62 46 5 7 46 252 112 96 130 72 245 181 75 31 198 247 142 61 45 108 250 250 81 118 181 62 191 252 246 243 254 254 250 142 62 121 245 201 64 169 243 81 93 242 254 255 255 255 253 249 141 62 120 101 74 236 253 187 62 119 242 252 254 255 254 253 249 140 63 62 174 253 253 252 158 62 94 191 247 253 253 248 196 100 62 147 249 253 254 254 251 186 81 62 73 101 103 75 61 77 176 250 254 254 253 255 254 253 242 180 129 104 103 128 177 239 252 254 255 254 