P2
# Created by IrfanView
16 16
255
254 255 254 253 236 163 114 94 95 119 172 239 253 253 254 254 255 255 251 174 72 64 93 123 121 89 62 77 180 249 254 255 254 251 143 62 115 216 216 156 157 223 211 107 62 157 251 252 253 174 62 63 150 131 7 1 1 10 153 248 133 62 188 253 241 75 112 158 62 36 16 112 104 10 5 204 246 99 87 246 177 62 211 250 99 62 125 251 253 136 2 113 252 195 63 194 129 83 252 254 69 35 63 157 251 194 1 93 253 247 71 143 108 113 253 253 68 3 120 62 158 195 1 93 254 252 96 127 109 113 207 97 40 1 104 61 63 111 3 94 253 251 94 127 132 83 244 51 2 1 6 191 151 62 33 94 253 246 71 146 181 63 207 205 11 1 115 253 252 144 62 109 251 190 63 197 243 80 109 247 134 46 242 254 253 196 37 62 160 93 90 249 253 182 62 139 243 215 253 254 254 226 141 125 63 64 197 253 254 251 153 62 108 207 251 253 253 251 201 98 63 170 252 253 254 254 253 179 78 62 82 109 108 79 62 82 192 252 254 255 253 254 254 253 242 178 128 103 105 130 182 244 252 254 254 252 