P2
# Created by IrfanView
16 16
255
255 255 255 255 255 255 254 252 252 255 255 255 255 255 255 255 255 255 255 255 255 255 250 151 136 238 254 255 255 255 255 255 255 255 255 255 255 248 146 185 199 131 237 253 255 255 255 255 255 255 255 255 247 143 174 107 204 200 131 236 253 255 255 255 255 255 255 245 142 189 185 61 191 207 201 130 233 253 255 255 255 255 245 140 191 207 208 42 14 110 203 203 129 231 253 255 254 244 138 193 207 208 150 6 2 56 175 207 204 129 227 253 251 137 194 207 208 155 99 111 1 57 176 208 207 204 130 240 252 134 191 208 208 208 207 93 2 118 206 207 208 204 133 241 255 244 135 190 207 208 190 22 90 78 208 207 202 132 231 254 255 254 246 136 188 207 136 89 192 32 208 202 132 234 254 254 255 255 254 247 139 184 96 156 208 76 176 133 236 255 255 255 255 255 255 254 248 141 183 206 208 189 134 237 254 254 255 255 255 255 255 255 254 249 143 181 197 136 239 255 255 255 255 255 255 255 255 255 255 254 251 152 141 240 254 254 255 255 255 255 255 255 255 255 255 255 254 252 252 255 254 255 255 255 255 255 