P2
# Created by IrfanView
16 16
255
255 255 255 255 254 239 182 168 170 172 219 254 255 255 255 255 255 255 254 252 162 151 197 206 205 205 166 147 226 255 255 255 255 254 250 94 174 197 207 209 209 209 198 202 89 212 255 255 255 255 154 35 50 197 207 206 207 204 217 108 2 113 238 254 254 213 159 158 18 58 198 206 203 216 112 1 113 176 168 252 252 165 204 231 169 18 67 201 218 121 4 113 218 226 141 250 252 150 195 124 142 142 10 78 124 6 93 157 140 147 168 219 252 150 180 44 58 207 148 9 13 86 201 120 63 94 195 189 252 149 179 90 69 207 159 4 5 95 208 114 132 84 196 188 253 148 193 169 155 152 16 66 112 7 108 159 207 137 169 215 253 161 207 221 177 25 54 193 216 108 6 130 206 226 141 247 253 207 164 169 27 45 192 208 204 215 100 3 130 180 164 253 255 255 150 41 40 190 207 206 207 204 214 95 7 120 232 253 255 254 243 75 169 200 208 209 209 209 202 200 75 193 255 255 255 255 255 248 155 162 204 204 205 205 182 145 214 254 255 255 255 255 255 255 252 226 171 165 166 166 201 251 255 255 255 255 