P2
# Created by IrfanView
16 16
255
255 255 255 255 255 255 255 252 252 255 255 255 255 255 255 255 255 255 255 255 255 254 245 141 133 244 254 255 255 255 255 255 255 255 255 255 254 247 139 190 194 129 244 254 255 255 255 255 255 255 255 254 248 140 189 208 208 193 131 245 254 255 255 255 255 255 254 248 140 180 198 198 198 208 192 133 246 254 255 255 255 254 249 140 186 87 7 7 30 200 208 191 134 246 255 255 255 249 141 186 207 180 5 1 40 171 207 208 190 135 246 255 253 148 185 207 208 208 75 57 25 16 181 208 208 189 141 252 253 147 197 207 208 208 181 179 178 8 99 208 208 200 144 252 255 244 141 197 208 208 207 207 208 36 71 207 199 143 242 254 255 254 243 141 198 208 208 207 208 40 70 200 144 243 253 255 255 255 254 243 140 199 208 208 208 116 125 141 241 253 255 255 255 255 255 254 241 140 200 208 208 202 142 240 254 255 255 255 255 255 255 255 253 240 141 200 202 142 239 253 255 255 255 255 255 255 255 255 255 254 240 139 140 238 254 255 255 255 255 255 255 255 255 255 255 255 254 249 249 255 255 255 255 255 255 255 