P2
# Created by IrfanView
16 16
255
255 255 255 255 255 255 254 243 239 253 254 255 255 255 255 255 255 255 255 255 255 255 239 124 117 228 254 255 255 255 255 255 255 255 255 255 254 241 124 190 199 115 231 254 254 255 255 255 255 255 255 255 243 127 186 207 178 174 115 234 254 255 255 255 255 255 254 244 131 183 201 208 81 106 194 117 237 254 254 255 255 255 246 134 179 165 30 208 142 33 187 191 120 237 254 255 255 249 137 175 208 184 36 176 65 13 105 208 187 119 241 255 254 184 159 208 207 118 5 68 85 5 65 202 207 184 152 255 254 176 181 207 192 115 5 49 152 4 69 193 208 209 139 255 253 175 181 207 208 127 3 146 94 10 173 208 208 209 139 255 253 175 181 207 208 115 115 157 70 97 164 208 208 209 139 255 253 175 181 207 208 120 204 121 79 183 86 207 208 209 139 255 253 175 181 207 208 187 207 189 138 207 135 206 208 209 139 255 253 179 146 172 172 172 172 172 172 172 172 172 172 169 145 255 254 241 183 179 179 179 179 179 179 179 179 179 179 181 233 255 255 254 254 254 254 254 254 254 254 254 254 254 254 254 254 255 