P2
# Created by IrfanView
16 16
255
255 255 255 255 255 253 254 254 254 254 253 254 255 255 255 255 255 255 255 254 239 175 164 164 164 164 180 245 255 255 255 255 255 255 254 241 151 63 61 60 60 60 67 166 246 254 255 255 255 254 243 157 64 60 60 60 60 60 61 70 171 248 254 255 255 245 165 65 61 60 60 60 60 60 60 60 73 177 250 255 255 210 68 99 91 98 106 78 99 91 70 106 89 79 226 255 255 206 79 186 175 119 199 106 183 190 102 187 189 91 228 255 255 206 68 192 101 66 172 119 119 148 126 186 188 91 228 255 255 206 72 78 190 67 172 118 121 149 125 173 89 68 228 255 255 206 100 177 190 67 171 79 189 190 100 146 60 68 228 255 255 210 71 92 76 61 78 61 87 80 66 74 60 83 225 255 255 249 172 69 60 60 60 60 60 60 60 60 76 183 252 255 255 255 247 166 67 61 60 60 60 60 61 73 178 251 254 255 255 255 255 245 160 65 61 60 60 60 71 173 249 254 255 255 255 255 255 255 243 187 179 179 179 179 191 248 255 255 255 255 255 255 255 255 255 254 254 255 255 255 254 254 255 255 255 255 