P2
# Created by IrfanView
16 16
255
255 255 255 255 255 255 255 251 252 254 255 255 255 255 255 255 255 255 255 255 255 255 252 159 132 235 254 255 255 255 255 255 255 255 255 255 254 252 160 174 201 131 236 254 255 255 255 255 255 255 255 254 252 162 108 88 91 94 131 238 253 255 255 255 255 255 254 253 166 171 102 54 60 48 200 130 240 253 255 255 255 254 253 169 168 207 105 60 61 56 208 198 131 242 254 255 255 253 172 165 208 208 100 29 44 33 208 207 197 133 242 255 254 179 163 207 208 207 104 177 203 82 207 208 208 194 136 246 254 141 198 208 208 207 115 205 207 114 208 207 208 208 136 233 255 240 130 200 208 208 99 68 101 38 208 208 207 146 199 253 255 254 238 129 202 207 102 74 86 52 208 207 149 197 252 255 255 255 252 236 130 202 107 88 88 69 208 150 193 252 255 255 255 255 255 254 234 131 99 41 54 40 153 188 252 255 255 255 255 255 255 255 254 231 126 196 200 149 184 253 255 255 255 255 255 255 255 255 255 254 229 131 154 182 254 255 255 255 255 255 255 255 255 255 255 255 254 230 202 253 254 255 255 255 255 255 